<svg version="1.1" xmlns="http://www.w3.org/2000/svg" xmlns:xlink="http://www.w3.org/1999/xlink" width="48.45814" height="49.07809" viewBox="0,0,48.45814,49.07809"><g transform="translate(-215.77848,-155.54657)"><g data-paper-data="{&quot;isPaintingLayer&quot;:true}" fill-rule="nonzero" stroke-linecap="round" stroke-linejoin="miter" stroke-miterlimit="10" stroke-dasharray="" stroke-dashoffset="0" style="mix-blend-mode: normal"><path d="M221.91246,170.04371l8.643,-7.15088l7.03695,-4.61795l2.16191,-1.16713l1.59919,-0.41662l1.03416,0.26068l1.05485,0.91959l5.35468,7.1604l0.40973,1.37955l-0.70226,0.97474l-2.44556,1.46916l-4.74241,3.00695l10.17425,-0.39262l6.37869,0.09293l2.65633,0.57619l1.14415,1.42978l1.03908,2.7522l0.24983,3.28997l-0.44553,4.48435l-0.83259,1.49182l-2.24891,0.73015l-3.50731,0.32994l-14.21933,-0.06669l9.08851,7.04321l0.13066,1.82801l-2.27157,2.34312l-5.92498,5.02275l-1.6747,0.3457l-1.93799,-1.03844l-14.61654,-10.38736l-4.00292,-3.78594l-2.35469,-3.2239l-0.91671,-2.93925l-0.20633,-3.07148l1.09599,-3.60703z" data-paper-data="{&quot;index&quot;:null}" fill="#f7f7f7" stroke="#000000" stroke-width="0"/><path d="M224.02823,171.73109l7.65798,-6.06578l6.23352,-3.91896l1.91477,-0.99093l1.41585,-0.35471l0.91496,0.2195l0.93248,0.77745l4.73049,6.05704l0.36097,1.16772l-0.62269,0.82626l-2.16619,1.24704l-4.20083,2.552l9.00507,-0.3447l5.64527,0.07103l2.35026,0.48472l1.01089,1.20938l0.91632,2.32933l0.21716,2.78567l-0.3997,3.79791l-0.73867,1.26428l-1.99125,0.62099l-3.10449,0.28361l-12.58457,-0.03939l8.03522,5.95331l0.11345,1.54781l-2.01324,1.9869l-5.24987,4.26042l-1.48258,0.29475l-1.71395,-0.87703l-12.92373,-8.77852l-3.53818,-3.20114l-2.08012,-2.7272l-0.80779,-2.48788l-0.17892,-2.6007l0.97432,-3.05577z" data-paper-data="{&quot;index&quot;:null}" fill="#db00f7" stroke="#000000" stroke-width="0"/><path d="M221.93534,170.18954l8.643,-7.15088l7.03696,-4.61795l2.1619,-1.16712l1.59919,-0.41663l1.03417,0.26068l1.05484,0.91959l5.35467,7.1604l0.40973,1.37955l-0.70225,0.97474l-2.44556,1.46917l-4.74241,3.00695l10.17425,-0.39263l6.37868,0.09293l2.65633,0.57619l1.14415,1.42978l1.03909,2.75221l0.24983,3.28997l-0.44553,4.48435l-0.83259,1.49183l-2.2489,0.73015l-3.50731,0.32994l-14.21933,-0.06669l9.08851,7.0432l0.13066,1.82802l-2.27156,2.34312l-5.92498,5.02276l-1.6747,0.3457l-1.938,-1.03844l-14.61654,-10.38736l-4.00291,-3.78593l-2.35469,-3.2239l-0.91671,-2.93926l-0.20633,-3.07148l1.09599,-3.60703z" data-paper-data="{&quot;index&quot;:null}" fill="none" stroke="#9d00b1" stroke-width="2.5"/></g></g></svg>