<svg version="1.1" xmlns="http://www.w3.org/2000/svg" xmlns:xlink="http://www.w3.org/1999/xlink" width="49.07809" height="48.45814" viewBox="0,0,49.07809,48.45814"><g transform="translate(-215.54657,-155.76338)"><g data-paper-data="{&quot;isPaintingLayer&quot;:true}" fill-rule="nonzero" stroke-linecap="round" stroke-linejoin="miter" stroke-miterlimit="10" stroke-dasharray="" stroke-dashoffset="0" style="mix-blend-mode: normal"><path d="M230.04371,198.08754l-7.15088,-8.643l-4.61795,-7.03695l-1.16713,-2.16191l-0.41662,-1.59919l0.26068,-1.03416l0.91959,-1.05485l7.1604,-5.35468l1.37955,-0.40973l0.97474,0.70226l1.46916,2.44556l3.00695,4.74241l-0.39262,-10.17425l0.09293,-6.37869l0.57619,-2.65633l1.42978,-1.14415l2.7522,-1.03908l3.28997,-0.24983l4.48435,0.44553l1.49182,0.83259l0.73015,2.24891l0.32994,3.50731l-0.06669,14.21933l7.04321,-9.08851l1.82801,-0.13066l2.34312,2.27157l5.02275,5.92498l0.3457,1.6747l-1.03844,1.93799l-10.38736,14.61654l-3.78594,4.00292l-3.2239,2.35469l-2.93925,0.91671l-3.07148,0.20633l-3.60703,-1.09599z" data-paper-data="{&quot;index&quot;:null}" fill="#f7f7f7" stroke="#000000" stroke-width="0"/><path d="M231.73109,195.97177l-6.06578,-7.65798l-3.91896,-6.23352l-0.99093,-1.91477l-0.35471,-1.41585l0.2195,-0.91496l0.77745,-0.93248l6.05704,-4.73049l1.16772,-0.36097l0.82626,0.62269l1.24704,2.16619l2.552,4.20083l-0.3447,-9.00507l0.07103,-5.64527l0.48472,-2.35026l1.20938,-1.01089l2.32933,-0.91632l2.78567,-0.21716l3.79791,0.3997l1.26428,0.73867l0.62099,1.99125l0.28361,3.10449l-0.03939,12.58457l5.95331,-8.03522l1.54781,-0.11345l1.9869,2.01324l4.26042,5.24987l0.29475,1.48258l-0.87703,1.71395l-8.77852,12.92373l-3.20114,3.53818l-2.7272,2.08012l-2.48788,0.80779l-2.6007,0.17892l-3.05577,-0.97432z" data-paper-data="{&quot;index&quot;:null}" fill="#00bbf7" stroke="#000000" stroke-width="0"/><path d="M230.18954,198.06466l-7.15088,-8.643l-4.61795,-7.03696l-1.16712,-2.1619l-0.41663,-1.59919l0.26068,-1.03417l0.91959,-1.05484l7.1604,-5.35467l1.37955,-0.40973l0.97474,0.70225l1.46917,2.44556l3.00695,4.74241l-0.39263,-10.17425l0.09293,-6.37868l0.57619,-2.65633l1.42978,-1.14415l2.75221,-1.03909l3.28997,-0.24983l4.48435,0.44553l1.49183,0.83259l0.73015,2.2489l0.32994,3.50731l-0.06669,14.21933l7.0432,-9.08851l1.82802,-0.13066l2.34312,2.27156l5.02276,5.92498l0.3457,1.6747l-1.03844,1.938l-10.38736,14.61654l-3.78593,4.00291l-3.2239,2.35469l-2.93926,0.91671l-3.07148,0.20633l-3.60703,-1.09599z" data-paper-data="{&quot;index&quot;:null}" fill="none" stroke="#004ba1" stroke-width="2.5"/></g></g></svg>