<svg version="1.1" xmlns="http://www.w3.org/2000/svg" xmlns:xlink="http://www.w3.org/1999/xlink" width="49.07809" height="48.45814" viewBox="0,0,49.07809,48.45814"><g transform="translate(-215.37534,-155.77847)"><g data-paper-data="{&quot;isPaintingLayer&quot;:true}" fill-rule="nonzero" stroke-linecap="round" stroke-linejoin="miter" stroke-miterlimit="10" stroke-dasharray="" stroke-dashoffset="0" style="mix-blend-mode: normal"><path d="M249.95629,161.91246l7.15088,8.643l4.61795,7.03695l1.16713,2.16191l0.41662,1.59919l-0.26068,1.03416l-0.91959,1.05485l-7.1604,5.35468l-1.37955,0.40973l-0.97474,-0.70226l-1.46916,-2.44556l-3.00695,-4.74241l0.39262,10.17425l-0.09293,6.37869l-0.57619,2.65633l-1.42978,1.14415l-2.7522,1.03908l-3.28997,0.24983l-4.48435,-0.44553l-1.49182,-0.83259l-0.73015,-2.24891l-0.32994,-3.50731l0.06669,-14.21933l-7.04321,9.08851l-1.82801,0.13066l-2.34312,-2.27157l-5.02275,-5.92498l-0.3457,-1.6747l1.03844,-1.93799l10.38736,-14.61654l3.78594,-4.00292l3.2239,-2.35469l2.93925,-0.91671l3.07148,-0.20633l3.60703,1.09599z" data-paper-data="{&quot;index&quot;:null}" fill="#f7f7f7" stroke="#000000" stroke-width="0"/><path d="M248.26891,164.02823l6.06578,7.65798l3.91896,6.23352l0.99093,1.91477l0.35471,1.41585l-0.2195,0.91496l-0.77745,0.93248l-6.05704,4.73049l-1.16772,0.36097l-0.82626,-0.62269l-1.24704,-2.16619l-2.552,-4.20083l0.3447,9.00507l-0.07103,5.64527l-0.48472,2.35026l-1.20938,1.01089l-2.32933,0.91632l-2.78567,0.21716l-3.79791,-0.3997l-1.26428,-0.73867l-0.62099,-1.99125l-0.28361,-3.10449l0.03939,-12.58457l-5.95331,8.03522l-1.54781,0.11345l-1.9869,-2.01324l-4.26042,-5.24987l-0.29475,-1.48258l0.87703,-1.71395l8.77852,-12.92373l3.20114,-3.53818l2.7272,-2.08012l2.48788,-0.80779l2.6007,-0.17892l3.05577,0.97432z" data-paper-data="{&quot;index&quot;:null}" fill="#26f700" stroke="#000000" stroke-width="0"/><path d="M249.81046,161.93534l7.15088,8.643l4.61795,7.03696l1.16712,2.1619l0.41663,1.59919l-0.26068,1.03417l-0.91959,1.05484l-7.1604,5.35467l-1.37955,0.40973l-0.97474,-0.70225l-1.46917,-2.44556l-3.00695,-4.74241l0.39263,10.17425l-0.09293,6.37868l-0.57619,2.65633l-1.42978,1.14415l-2.75221,1.03909l-3.28997,0.24983l-4.48435,-0.44553l-1.49183,-0.83259l-0.73015,-2.2489l-0.32994,-3.50731l0.06669,-14.21933l-7.0432,9.08851l-1.82802,0.13066l-2.34312,-2.27156l-5.02276,-5.92498l-0.3457,-1.6747l1.03844,-1.938l10.38736,-14.61654l3.78593,-4.00291l3.2239,-2.35469l2.93926,-0.91671l3.07148,-0.20633l3.60703,1.09599z" data-paper-data="{&quot;index&quot;:null}" fill="none" stroke="#00a108" stroke-width="2.5"/></g></g></svg>