<svg version="1.1" xmlns="http://www.w3.org/2000/svg" xmlns:xlink="http://www.w3.org/1999/xlink" width="48.45814" height="49.07809" viewBox="0,0,48.45814,49.07809"><g transform="translate(-215.76339,-155.37534)"><g data-paper-data="{&quot;isPaintingLayer&quot;:true}" fill-rule="nonzero" stroke-linecap="round" stroke-linejoin="miter" stroke-miterlimit="10" stroke-dasharray="" stroke-dashoffset="0" style="mix-blend-mode: normal"><path d="M258.08754,189.95629l-8.643,7.15088l-7.03695,4.61795l-2.16191,1.16713l-1.59919,0.41662l-1.03416,-0.26068l-1.05485,-0.91959l-5.35468,-7.1604l-0.40973,-1.37955l0.70226,-0.97474l2.44556,-1.46916l4.74241,-3.00695l-10.17425,0.39262l-6.37869,-0.09293l-2.65633,-0.57619l-1.14415,-1.42978l-1.03908,-2.7522l-0.24983,-3.28997l0.44553,-4.48435l0.83259,-1.49182l2.24891,-0.73015l3.50731,-0.32994l14.21933,0.06669l-9.08851,-7.04321l-0.13066,-1.82801l2.27157,-2.34312l5.92498,-5.02275l1.6747,-0.3457l1.93799,1.03844l14.61654,10.38736l4.00292,3.78594l2.35469,3.2239l0.91671,2.93925l0.20633,3.07148l-1.09599,3.60703z" data-paper-data="{&quot;index&quot;:null}" fill="#f7f7f7" stroke="#000000" stroke-width="0"/><path d="M255.97177,188.26891l-7.65798,6.06578l-6.23352,3.91896l-1.91477,0.99093l-1.41585,0.35471l-0.91496,-0.2195l-0.93248,-0.77745l-4.73049,-6.05704l-0.36097,-1.16772l0.62269,-0.82626l2.16619,-1.24704l4.20083,-2.552l-9.00507,0.3447l-5.64527,-0.07103l-2.35026,-0.48472l-1.01089,-1.20938l-0.91632,-2.32933l-0.21716,-2.78567l0.3997,-3.79791l0.73867,-1.26428l1.99125,-0.62099l3.10449,-0.28361l12.58457,0.03939l-8.03522,-5.95331l-0.11345,-1.54781l2.01324,-1.9869l5.24987,-4.26042l1.48258,-0.29475l1.71395,0.87703l12.92373,8.77852l3.53818,3.20114l2.08012,2.7272l0.80779,2.48788l0.17892,2.6007l-0.97432,3.05577z" data-paper-data="{&quot;index&quot;:null}" fill="#f70000" stroke="#000000" stroke-width="0"/><path d="M258.06467,189.81046l-8.643,7.15088l-7.03696,4.61795l-2.1619,1.16712l-1.59919,0.41663l-1.03417,-0.26068l-1.05484,-0.91959l-5.35467,-7.1604l-0.40973,-1.37955l0.70225,-0.97474l2.44556,-1.46917l4.74241,-3.00695l-10.17425,0.39263l-6.37868,-0.09293l-2.65633,-0.57619l-1.14415,-1.42978l-1.03909,-2.75221l-0.24983,-3.28997l0.44553,-4.48435l0.83259,-1.49183l2.2489,-0.73015l3.50731,-0.32994l14.21933,0.06669l-9.08851,-7.0432l-0.13066,-1.82802l2.27156,-2.34312l5.92498,-5.02276l1.6747,-0.3457l1.938,1.03844l14.61654,10.38736l4.00291,3.78593l2.35469,3.2239l0.91671,2.93926l0.20633,3.07148l-1.09599,3.60703z" data-paper-data="{&quot;index&quot;:null}" fill="none" stroke="#a10000" stroke-width="2.5"/></g></g></svg>