<svg version="1.1" xmlns="http://www.w3.org/2000/svg" xmlns:xlink="http://www.w3.org/1999/xlink" width="48.45816" height="49.07808" viewBox="0,0,48.45816,49.07808"><g transform="translate(-214.06338,-156.05938)"><g data-paper-data="{&quot;isPaintingLayer&quot;:true}" fill-rule="nonzero" stroke-linejoin="miter" stroke-miterlimit="10" stroke-dasharray="" stroke-dashoffset="0" style="mix-blend-mode: normal"><g><path d="M260.18593,175.62242l1.09599,3.60703l-0.20633,3.07148l-0.91671,2.93925l-2.35469,3.2239l-4.00292,3.78594l-14.61654,10.38736l-1.93799,1.03844l-1.6747,-0.3457l-5.92498,-5.02275l-2.27157,-2.34312l0.13066,-1.82801l9.08851,-7.04321l-14.21933,0.06669l-3.50731,-0.32994l-2.24891,-0.73015l-0.83259,-1.49182l-0.44553,-4.48435l0.24983,-3.28997l1.03908,-2.7522l1.14415,-1.42978l2.65633,-0.57619l6.37869,-0.09293l10.17425,0.39262l-4.74241,-3.00695l-2.44556,-1.46916l-0.70226,-0.97474l0.40973,-1.37955l5.35468,-7.1604l1.05485,-0.91959l1.03416,-0.26068l1.59919,0.41662l2.16191,1.16713l7.03695,4.61795l8.643,7.15088z" data-paper-data="{&quot;index&quot;:null}" fill="#f7f7f7" stroke="#000000" stroke-width="0" stroke-linecap="round"/><path d="M257.63958,176.53831l0.97432,3.05577l-0.17892,2.6007l-0.80779,2.48788l-2.08012,2.7272l-3.53818,3.20114l-12.92373,8.77852l-1.71395,0.87703l-1.48258,-0.29475l-5.24987,-4.26042l-2.01324,-1.9869l0.11345,-1.54781l8.03522,-5.95331l-12.58457,0.03939l-3.10449,-0.28361l-1.99125,-0.62099l-0.73867,-1.26428l-0.3997,-3.79791l0.21716,-2.78567l0.91632,-2.32933l1.01089,-1.20938l2.35026,-0.48472l5.64527,-0.07103l9.00507,0.3447l-4.20083,-2.552l-2.16619,-1.24704l-0.62269,-0.82626l0.36097,-1.16772l4.73049,-6.05704l0.93248,-0.77745l0.91496,-0.2195l1.41585,0.35471l1.91477,0.99093l6.23352,3.91896l7.65798,6.06578z" data-paper-data="{&quot;index&quot;:null}" fill="#f70000" stroke="#000000" stroke-width="0" stroke-linecap="round"/><path d="M238.01591,161.15557c0.02333,1.86902 0.24045,4.32852 0.2719,5.13606c0.28535,7.32834 0.56613,14.65773 0.847,21.98615c0.09703,2.53152 -0.10637,5.08229 0.19531,7.59764c0.01669,0.99667 0.30048,1.93215 0.78454,2.73531c0.01016,0.01958 0.02042,0.0391 0.0308,0.05855l-1.06031,0.72022l-1.71395,0.87703l-1.48258,-0.29475l-5.24986,-4.26042l-2.01325,-1.9869l0.11345,-1.54781l8.03521,-5.95331l-12.58456,0.03939l-3.1045,-0.28361l-1.99125,-0.62099l-0.73867,-1.26428l-0.3997,-3.79791l0.21716,-2.78567l0.91632,-2.32933l1.0109,-1.20938l2.35026,-0.48472l5.64527,-0.07103l9.00507,0.3447l-4.20082,-2.552l-2.16619,-1.24704l-0.62269,-0.82626l0.36097,-1.16772l4.73049,-6.05704l0.93248,-0.77745l0.91496,-0.2195z" data-paper-data="{&quot;index&quot;:null}" fill="#bd0000" stroke="#000000" stroke-width="0" stroke-linecap="butt"/><path d="M257.64188,176.4651l0.97432,3.05577l-0.17892,2.6007l-0.80779,2.48788l-2.08013,2.72719l-3.53818,3.20115l-1.74904,1.18805c-0.12964,-5.27295 -0.4611,-10.54745 -0.65112,-15.81146c-0.0927,-2.56791 -0.21922,-5.13481 -0.33426,-7.70202l4.99734,3.95833z" data-paper-data="{&quot;index&quot;:null}" fill="#f77c7c" stroke="#000000" stroke-width="0" stroke-linecap="butt"/><path d="M260.16303,175.76828l1.09599,3.60703l-0.20633,3.07148l-0.91671,2.93926l-2.35469,3.2239l-4.00291,3.78593l-14.61654,10.38736l-1.938,1.03844l-1.6747,-0.3457l-5.92498,-5.02276l-2.27156,-2.34312l0.13066,-1.82802l9.08851,-7.0432l-14.21933,0.06669l-3.50731,-0.32994l-2.2489,-0.73015l-0.83259,-1.49183l-0.44553,-4.48435l0.24983,-3.28997l1.03909,-2.75221l1.14415,-1.42978l2.65633,-0.57619l6.37868,-0.09293l10.17425,0.39263l-4.74241,-3.00695l-2.44556,-1.46917l-0.70225,-0.97474l0.40973,-1.37955l5.35467,-7.1604l1.05484,-0.91959l1.03417,-0.26068l1.59919,0.41663l2.1619,1.16712l7.03696,4.61795l8.643,7.15088z" data-paper-data="{&quot;index&quot;:null}" fill="none" stroke="#821212" stroke-width="2.5" stroke-linecap="round"/></g></g></g></svg>